<svg id="_0" data-name="0" xmlns="http://www.w3.org/2000/svg" viewBox="0 0 784.69 633.14"><defs><style>.cls-1{fill:#fff;}</style></defs><g id="LWPOLYLINE"><path class="cls-1" d="M740.07,325.74V60.53H588.52a151.55,151.55,0,1,0,0,303.1,75.78,75.78,0,0,1,0,151.55c-104.62,0-189.44-84.82-189.44-189.44,0-146.47-118.74-265.21-265.21-265.21H58.1V591h75.77a265.21,265.21,0,0,0,203.65-95.31,303.09,303.09,0,0,1-37.89-78.19,189.44,189.44,0,0,1-165.76,97.73V136.3c104.63,0,189.44,84.82,189.44,189.44C323.31,472.21,442.05,591,588.52,591a151.55,151.55,0,1,0,0-303.1,75.78,75.78,0,1,1,0-151.55h75.77V265.78a189.43,189.43,0,0,1,75.78,60Z" transform="translate(-6.74 -9.17)"/></g><path class="cls-1" d="M588.52,642.31A316.66,316.66,0,0,1,361.2,546.06a316.7,316.7,0,0,1-227.33,96.25H6.74V9.17H133.87A315.92,315.92,0,0,1,396,148.14a202.91,202.91,0,0,1,192.57-139H791.43V439.4C791.43,551.28,700.4,642.31,588.52,642.31ZM778,439.4V22.64H588.52A189.44,189.44,0,0,0,401.31,183.11,303.1,303.1,0,0,0,133.87,22.64H20.21v606.2H133.87A303.12,303.12,0,0,0,361.2,526.22,303.09,303.09,0,0,0,588.52,628.84C693.14,628.84,778,544,778,439.4Z" transform="translate(-6.74 -9.17)"/><path class="cls-1" d="M626.41,174.19v79.6A189.88,189.88,0,0,0,588.52,250a37.89,37.89,0,1,1,0-75.78Zm-13.48,13.47H588.52a24.42,24.42,0,1,0,0,48.83A203.34,203.34,0,0,1,612.93,238Z" transform="translate(-6.74 -9.17)"/><path class="cls-1" d="M171.76,472.48V179a151.55,151.55,0,0,1,0,293.48Zm13.47-18.56c63.49-25.38,99.87-94.78,82.34-162.7a138.15,138.15,0,0,0-82.34-93.65Z" transform="translate(-6.74 -9.17)"/><path class="cls-1" d="M626.41,439.4a37.89,37.89,0,0,1-37.89,37.89A151.55,151.55,0,0,1,437,325.74a189.44,189.44,0,0,0,151.55,75.77A37.9,37.9,0,0,1,626.41,439.4Zm-13.48,0A24.44,24.44,0,0,0,588.52,415,204,204,0,0,1,456.44,366c17.28,56.54,69.95,97.78,132.08,97.78A24.45,24.45,0,0,0,612.93,439.4Z" transform="translate(-6.74 -9.17)"/></svg>